<?xml version="1.0" encoding="UTF-8" standalone="no"?>
<!DOCTYPE svg PUBLIC "-//W3C//DTD SVG 1.1//EN" "http://www.w3.org/Graphics/SVG/1.1/DTD/svg11.dtd">
<svg width="100%" height="100%" viewBox="0 0 976 1655" version="1.1" xmlns="http://www.w3.org/2000/svg" xmlns:xlink="http://www.w3.org/1999/xlink" xml:space="preserve" xmlns:serif="http://www.serif.com/" style="fill-rule:evenodd;clip-rule:evenodd;stroke-linecap:round;stroke-linejoin:round;stroke-miterlimit:1.5;">
    <g transform="matrix(1,0,0,1,-1797.23,0)">
        <g transform="matrix(0.490465,0,0,1,1066.68,18.7355)">
            <rect id="ArtBoard2" x="1489.5" y="-18.735" width="1989.29" height="1654.97" style="fill:none;"/>
            <g id="ArtBoard21" serif:id="ArtBoard2">
                <g transform="matrix(2.03888,0,0,1,-2174.84,-18.7355)">
                    <path d="M1909.17,1494.01L2115.45,1007.95" style="fill:none;stroke:black;stroke-width:11.18px;"/>
                </g>
                <g transform="matrix(2.03888,0,0,1,-2174.84,-18.7355)">
                    <path d="M2115.45,1007.95L2286.16,220.769" style="fill:none;stroke:black;stroke-width:11.18px;"/>
                </g>
                <g transform="matrix(2.03888,0,0,1,-2174.84,-18.7355)">
                    <path d="M2465.15,1003.13L2286.16,220.769" style="fill:none;stroke:black;stroke-width:11.18px;"/>
                </g>
                <g transform="matrix(2.03888,0,0,1,-2174.84,-18.7355)">
                    <path d="M2675.16,1498.43L2465.15,1003.13" style="fill:none;stroke:black;stroke-width:11.18px;"/>
                </g>
                <g transform="matrix(2.03888,0,0,1,-2174.84,-18.7355)">
                    <path d="M2634.66,1402.9L2087.87,1098.01" style="fill:none;stroke:black;stroke-width:11.18px;"/>
                </g>
                <g transform="matrix(2.03888,0,0,1,-2174.84,-18.7355)">
                    <path d="M1960.78,1399.61L2508.96,1099.91" style="fill:none;stroke:black;stroke-width:11.18px;"/>
                </g>
                <g transform="matrix(2.03888,0,0,1,-2174.84,-18.7355)">
                    <path d="M1888.7,896.951L2687.26,896.951" style="fill:none;stroke:black;stroke-width:11.18px;"/>
                </g>
                <g transform="matrix(2.03888,0,0,1,-2174.84,-18.7355)">
                    <path d="M2541.2,747.103L2687.26,896.951" style="fill:none;stroke:black;stroke-width:11.18px;"/>
                </g>
                <g transform="matrix(2.03888,0,0,1,-2174.84,-18.7355)">
                    <path d="M2042.34,749L1888.7,895.055" style="fill:none;stroke:black;stroke-width:11.18px;"/>
                </g>
                <g transform="matrix(2.03888,0,0,1,-2174.84,-18.7355)">
                    <path d="M2042.34,749L2543.1,747.103" style="fill:none;stroke:black;stroke-width:11.18px;"/>
                </g>
                <g transform="matrix(2.03888,0,0,1,-2174.84,-18.7355)">
                    <path d="M2091.66,540.35L2488.09,538.453" style="fill:none;stroke:black;stroke-width:11.18px;"/>
                </g>
                <g transform="matrix(2.03888,0,0,1,-2174.84,-18.7355)">
                    <path d="M2442.57,470.168L2488.09,538.453" style="fill:none;stroke:black;stroke-width:11.18px;"/>
                </g>
                <g transform="matrix(2.03888,0,0,1,-2174.84,-18.7355)">
                    <path d="M2140.98,468.271L2089.76,540.35" style="fill:none;stroke:black;stroke-width:11.18px;"/>
                </g>
                <g transform="matrix(2.03888,0,0,1,-2174.84,-18.7355)">
                    <path d="M2140.98,468.271L2436.88,466.374" style="fill:none;stroke:black;stroke-width:11.18px;"/>
                </g>
            </g>
        </g>
    </g>
</svg>
